# xmcd
#
# Track frame offsets:
#	150
#	17775
#	35550
#	56625
#	69750
#	90675
#	112350
#	130800
#	147075
#	157800
#	168075
#	184950
#	202425
#	213000
#	227775
#	247800
#	263250
#	280875
#	293400
#	319125
#	330225
#
# Disc length: 4625 seconds
#
# Revision: 0
# Processed by: cddbd v1.5.2PL0 Copyright (c) Steve Scherf et al.
# Submitted via: audiograbber 1.83.01
#
DISCID=25120f15
DTITLE=Tony Bennett and Bill Evans - The Legendary Sessions
DYEAR=1900
DGENRE=
TTITLE0=Young And Foolish
TTITLE1=The Touch Of Your Lips
TTITLE2=Some Other Time
TTITLE3=When In Rome
TTITLE4=We'll Be Together Again
TTITLE5=My Foolish Heart
TTITLE6=Waltz For Debby
TTITLE7=But Beautiful
TTITLE8=Days Of Wine And Roses
TTITLE9=The Bad And The Beautiful
TTITLE10=Lucky To Be Me
TTITLE11=Make Someone Happy
TTITLE12=You're Nearer
TTITLE13=You're Nearer
TTITLE14=A Child Is Born
TTITLE15=The Two Lonely People
TTITLE16=You Don't Know What Love Is
TTITLE17=Maybe September
TTITLE18=Lonely Girl
TTITLE19=You Must Believe In Spring
TTITLE20=Who Can I Turn To
EXTD=
EXTT0=
EXTT1=
EXTT2=
EXTT3=
EXTT4=
EXTT5=
EXTT6=
EXTT7=
EXTT8=
EXTT9=
EXTT10=
EXTT11=
EXTT12=
EXTT13=
EXTT14=
EXTT15=
EXTT16=
EXTT17=
EXTT18=
EXTT19=
EXTT20=
PLAYORDER=
